<svg xmlns="http://www.w3.org/2000/svg" viewBox="0 0 200 93"><defs id="SvgjsDefs2280"><linearGradient id="SvgjsLinearGradient2283"><stop id="SvgjsStop2284" stop-color="#7f00ff" offset="0"></stop><stop id="SvgjsStop2285" stop-color="#e100ff" offset="1"></stop></linearGradient></defs><g class="logo" featurekey="text1" transform="matrix(5.251413152121962,0,0,5.251413152121962,-2.717783068448461,-42.463534304541106)"><path d="M0.51758 9.990375 l2.7734 0 l0 5.5762 l2.8027 0 l0 -5.5762 l2.3535 0 l0 7.9492 l-0.9668 0 l0 0.35156 l0.9668 0 l0 5.6934 l-2.3047 0 c-0.032549 0 -0.048828 -0.016279 -0.048828 -0.048828 l0 -6.0449 l-2.8027 0 l0 6.0449 c0 0.032549 -0.016279 0.048828 -0.048828 0.048828 l-2.3242 0 l0 -7.2949 l-0.40039 0 l0 -6.6992 z M8.4473 17.939475 l1.2402 0 l0 0.35156 l-1.2402 0 l0 -0.35156 z M10.537105 10.088375 l6.8457 0 l0 2.2754 c0 0.032549 -0.016279 0.048828 -0.048828 0.048828 l-4.0625 0 l0 3.0078 l3.6426 0 l0 0.029297 c0 0.084639 -0.013018 0.57617 -0.039063 1.4746 c-0.019531 0 -0.029297 0.0065136 -0.029297 0.019531 l0.16602 0 l0 0.70313 l-3.1543 0 l0 2.8516 l-0.84961 0 l0 0.2832 l0.84961 0 l0 0.86914 l3.5742 0 l0 0.32227 l-0.2832 0 l0 1.709 l-4.2773 0 l0 0.30273 l-2.0313 0 l0 -4.9805 l-0.30273 0 l0 -1.7578 l-2.2266 0 l0 -0.30273 l2.2266 0 l0 -6.8555 z M10.556645 16.943375 l0 0.30273 l1.1426 0 l0 -0.30273 l-1.1426 0 z M23.242228125 10.029375 c1.5495 0 2.5879 0.49806 3.1152 1.4941 c0.36458 0.75521 0.54688 1.4941 0.54688 2.2168 l-0.019531 0 c-1.0612 0.091143 -1.7871 0.13672 -2.1777 0.13672 c0 -0.51433 -0.1595 -0.94727 -0.47852 -1.2988 c-0.29948 -0.16927 -0.57617 -0.25391 -0.83008 -0.25391 l-0.39063 0 c-0.66406 0 -1.0677 0.25716 -1.2109 0.77148 c-0.032549 0.14974 -0.048828 0.26692 -0.048828 0.35156 l0 0.20508 c0 0.72917 0.38411 1.2565 1.1523 1.582 c0.065107 0.058594 0.59896 0.30273 1.6016 0.73242 c0.53386 0.24739 1.0286 0.55338 1.4844 0.91796 l0 0.019531 l-2.4512 0 l0 0.27344 l3.2324 0 l0 0.39063 l0.41016 0 l0 4.2383 l-0.80078 0 l0 2.1777 l-6.2109 0 l0 -2.1777 l-1.4648 0 l0 -1.4648 l0.83008 0 l0 -0.50781 l-0.83008 0 l0 -0.3418 l2.8418 0 l0 2.3145 l2.9102 0 l0 -3.4863 l-2.1777 0 l0 -1.1426 l-2.7051 0 l0 -0.27344 l1.3086 0 l0 -0.019531 c-1.1458 -0.76172 -1.7188 -1.8392 -1.7188 -3.2324 l0 -0.18555 c0 -1.1653 0.35808 -2.0508 1.0742 -2.6563 c0.65104 -0.52083 1.6536 -0.78125 3.0078 -0.78125 z M26.767628125 16.904275 l0.98633 0 l0 0.27344 l-0.98633 0 l0 -0.27344 z M17.763638125 19.833975 l0.9375 0 l0 0.50781 l-0.9375 0 l0 -0.50781 z M27.490230625 9.990375 l8.2031 0 l0 2.334 l-2.7148 0 l0 9.6777 l1.2305 0 l0 0.2832 l-1.2305 0 l0 1.0645 l-0.73242 0 l0 0.37109 l0.51758 0 l0 0.26367 l-2.4902 0 c-0.032549 0 -0.048828 -0.016279 -0.048828 -0.048828 l0 -11.611 l-2.7344 0 l0 -2.334 z M32.011690625 22.001975 l0 0.2832 l0.94727 0 l0 -0.2832 l-0.94727 0 z M35.888670625 9.990375 l2.6367 -0.0000095367 c0.026045 0.0065136 0.039063 0.022793 0.039063 0.048838 l0 6.7969 c0 0.032549 -0.013018 0.048828 -0.039063 0.048828 l-0.3125 0 l0 7.0508 c0 0.032549 -0.016279 0.048828 -0.048828 0.048828 l-2.2754 0 c-0.032549 0 -0.048828 -0.016279 -0.048828 -0.048828 l0 -7.2168 l-0.70313 0 c-0.032549 0 -0.048828 -0.016279 -0.048828 -0.048828 l0 -0.30273 c0.0065136 -0.032549 0.022793 -0.048828 0.048838 -0.048828 l0.70313 0 l0 -6.2793 c0.0065136 -0.032549 0.022793 -0.048828 0.048838 -0.048828 z M35.859350625 16.318375 l0 0.40039 l1.3477 0 l0 -0.40039 l-1.3477 0 z"></path></g></svg>